Genre:Comedy | Drama
Language:English
 
http://www.imdb.com/title/tt1578275/

Source:720p.BluRay.x264-Felony
Subtitles:Romana


Format : MPEG-4
Format profile : Base Media
Codec ID : isom
File size : 2.66 GiB
Duration : 1h 51mn
Overall bit rate : 3 419 Kbps


Video
Format profile : High@L4.1
Format settings, CABAC : Yes
Format settings, ReFrames : 3 frames
Codec ID : avc1
Codec ID/Info : Advanced Video Coding
Duration : 1h 51mn
Bit rate mode : Variable
Bit rate : 3 000 Kbps
Maximum bit rate : 27.8 Mbps
Width : 1 280 pixels
Height : 544 pixels
Display aspect ratio : 2.35:1
Frame rate mode : Constant
Frame rate : 23.976 fps
Color space : YUV
Chroma subsampling : 4:2:0
Bit depth : 8 bits
Scan type : Progressive
Bits/(Pixel*Frame) : 0.180
Stream size : 2.32 GiB (87%)
Writing library : x264


Audio
ID : 2
Format : AAC
Format/Info : Advanced Audio Codec
Format version : Version 4
Format profile : LC
Format settings, SBR : No
Codec ID : 40
Duration : 1h 51mn
Bit rate mode : Variable
Bit rate : 443 Kbps
Maximum bit rate : 526 Kbps
Channel(s) : 6 channels
Channel positions : Front: L C R, Side: L R, LFE
Sampling rate : 48.0 KHz
Stream size : 353 MiB (13%)


Plot:
A man discovers that his best friend's wife is having an affair.
 
http://leetleech.org/images/97545744746627577289.png
 
http://leetleech.org/images/56169733306323945396.png
 
http://leetleech.org/images/85591770255978548124.png
 
http://leetleech.org/images/08473465264789214370.png
 
http://leetleech.org/images/68186059778785491360.png
